<svg width="180" height="60" viewBox="0 0 180 60" xmlns="http://www.w3.org/2000/svg">
  <!-- REBOOT logo in white with orange lightning bolt -->
  <g>
    <!-- R -->
    <path d="M10 12 L10 48 L18 48 L18 32 L24 32 L32 48 L41 48 L32 30 C37 29 40 24 40 19 C40 12 34 12 26 12 Z M18 19 L26 19 C30 19 32 21 32 24 C32 27 30 29 26 29 L18 29 Z" fill="#ffffff"/>
    
    <!-- E -->
    <path d="M46 12 L46 48 L66 48 L66 41 L54 41 L54 32 L64 32 L64 25 L54 25 L54 19 L66 19 L66 12 Z" fill="#ffffff"/>
    
    <!-- B -->
    <path d="M72 12 L72 48 L86 48 C94 48 98 44 98 38 C98 34 96 31 92 30 C95 29 97 26 97 21 C97 12 90 12 84 12 Z M80 19 L84 19 C88 19 89 21 89 23 C89 26 88 28 84 28 L80 28 Z M80 35 L86 35 C89 35 90 37 90 39 C90 42 89 41 86 41 L80 41 Z" fill="#ffffff"/>
    
    <!-- O with lightning bolt -->
    <g>
      <!-- O outline -->
      <path d="M104 12 C104 12 104 30 104 30 C104 48 112 48 118 48 C124 48 132 48 132 30 C132 12 124 12 118 12 C112 12 104 12 104 12 Z M112 19 C112 19 115 19 118 19 C121 19 124 19 124 30 C124 41 121 41 118 41 C115 41 112 41 112 30 C112 19 112 19 112 19 Z" fill="#ffffff"/>
      <!-- Lightning bolt overlay -->
      <path d="M121 20 L114 30 L118 30 L115 40 L123 28 L118 28 L122 20 Z" fill="#f97316"/>
    </g>
    
    <!-- Second O -->
    <path d="M138 12 C138 12 138 30 138 30 C138 48 146 48 152 48 C158 48 166 48 166 30 C166 12 158 12 152 12 C146 12 138 12 138 12 Z M146 19 C146 19 149 19 152 19 C155 19 158 19 158 30 C158 41 155 41 152 41 C149 41 146 41 146 30 C146 19 146 19 146 19 Z" fill="#ffffff"/>
    
    <!-- T -->
    <path d="M172 12 L172 19 L180 19 L180 48 L188 48 L188 19 L196 19 L196 12 Z" fill="#ffffff"/>
  </g>
</svg>