<?xml version="1.0" encoding="UTF-8"?>
<svg version="1.1" xmlns="http://www.w3.org/2000/svg" width="512" height="56">
<!-- REBOOT text in white -->
<path d="M0 0 C0.99 0 1.98 0 3 0 C3.33 0.99 3.66 1.98 4 3 C3.67 3.66 3.34 4.32 3 5 C2.960008 6.99960012 2.95653201 9.00047242 3 11 C3.67546875 10.97679687 4.3509375 10.95359375 5.046875 10.9296875 C6.38492188 10.90261719 6.38492188 10.90261719 7.75 10.875 C9.07257813 10.84019531 9.07257813 10.84019531 10.421875 10.8046875 C13.14906426 11.01129275 14.71315408 11.52694159 17 13 C17.495 13.99 17.495 13.99 18 15 C18.99 15 19.98 15 21 15 C21 16.32 21 17.64 21 19 C21.928125 19.0928125 21.928125 19.0928125 22.875 19.1875 C25 20 25 20 26.25 22.3125 C27 25 27 25 27 29 C27.66 29 28.32 29 29 29 C28.505 26.03 28.505 26.03 28 23 C28.66 22.67 29.32 22.34 30 22 C30.495 20.515 30.495 20.515 31 19 C31.33 19.33 31.66 19.66 32 20 C32.61875 19.05125 33.2375 18.1025 33.875 17.125 C36.86237458 12.73180209 38.3747277 11.03685577 43.4375 10 C45.84329145 9.50571219 47.80084246 9.09957877 50 8 C51.62860483 8.06242039 53.25493456 8.19712931 54.875 8.375 C56.17050781 8.51035156 56.17050781 8.51035156 57.4921875 8.6484375 C61.5529604 9.21770473 65.30069209 10.20033669 69 12 C69.495 13.485 69.495 13.485 70 15 C70.99 15.66 71.98 16.32 73 17 C78.30351719 23.25964424 78.53265328 29.80839155 78.46875 37.64453125 C77.97386804 41.18706127 77.19187709 42.31261878 75 45 C75 46.32 75 47.64 75 49 C74.46375 49.061875 73.9275 49.12375 73.375 49.1875 C69.95630034 50.35705515 67.73076115 52.67594796 65 55 C60.1562941 56.61456863 55.19739017 56.22615798 50.125 56.25 C48.49111328 56.2809375 48.49111328 56.2809375 46.82421875 56.3125 C45.77105469 56.31765625 44.71789062 56.3228125 43.6328125 56.328125 C42.67262207 56.3374707 41.71243164 56.34681641 40.72314453 56.35644531 C37.49582902 55.93400667 35.59517964 54.93856792 33 53 C33 52.34 33 51.68 33 51 C32.34 51 31.68 51 31 51 C31 50.34 31 49.68 31 49 C30.34 49 29.68 49 29 49 C28.34 47.35 27.68 45.7 27 44 C26.01 45.65 25.02 47.3 24 49 C22.68 48.67 21.36 48.34 20 48 C19.67 48.99 19.34 49.98 19 51 C18.34 51 17.68 51 17 51 C16.67 52.65 16.34 54.3 16 56 C11.90666095 56.07408587 7.81358067 56.1285704 3.71972656 56.16479492 C2.32675378 56.17989358 0.93382862 56.20037444 -0.45898438 56.22631836 C-2.45942885 56.26265122 -4.46021827 56.27811192 -6.4609375 56.29296875 C-8.26763916 56.31653442 -8.26763916 56.31653442 -10.11083984 56.34057617 C-11.54097412 56.17199097 -11.54097412 56.17199097 -13 56 C-13.66 55.01 -14.32 54.02 -15 53 C-15.66 53 -16.32 53 -17 53 C-17.33 51.68 -17.66 50.36 -18 49 C-18.99 49 -19.98 49 -21 49 C-26.54667373 41.10019195 -24.95531013 33.1377491 -24 24 C-23.34 24 -22.68 24 -22 24 C-21.5978125 22.8553125 -21.5978125 22.8553125 -21.1875 21.6875 C-20.01888538 19.0427406 -18.99065202 17.99065202 -17 16 C-15.80972016 13.40084462 -15.80972016 13.40084462 -15 11 C-14.05125 11.20625 -13.1025 11.4125 -12.125 11.625 C-11.09375 11.74875 -10.0625 11.8725 -9 12 C-8.34 11.34 -7.68 10.68 -7 10 C-6.67 10.99 -6.34 11.98 -6 13 C-5.67 12.34 -5.34 11.68 -5 11 C-4.566875 10.1646875 -4.566875 10.1646875 -4.125 9.3125 C-2.63661127 6.25303428 -1.32568231 3.13343091 0 0 Z M9 13 C8.34 14.98 7.68 16.96 7 19 C7.99 19 8.98 19 10 19 C10 17.02 10 15.04 10 13 C9.67 13 9.34 13 9 13 Z M-8 17 C-7 19 -7 19 -7 19 Z M44 17 C44.33 17.66 44.66 18.32 45 19 C45.66 18.34 46.32 17.68 47 17 C46.01 17 45.02 17 44 17 Z M61 17 C62 19 62 19 62 19 Z M-9 19 C-8 21 -8 21 -8 21 Z M8 20 C5.7986134 23.80427492 5.7986134 23.80427492 5 28 C4.38125 28.226875 3.7625 28.45375 3.125 28.6875 C0.29679816 30.43433055 -0.18424894 31.81115493 -1 35 C-0.70480232 37.7336432 -0.70480232 37.7336432 0 40 C-1.65 40 -3.3 40 -5 40 C-5 38.35 -5 36.7 -5 35 C-7.31 35 -9.62 35 -12 35 C-12.33 36.98 -12.66 38.96 -13 41 C-12.2575 41.4125 -11.515 41.825 -10.75 42.25 C-8 44 -8 44 -6.1875 46.125 C-2.95577663 48.8950486 -0.19926402 48.72004907 4 49 C4 48.34 4 47.68 4 47 C4.99 47 5.98 47 7 47 C7 47.66 7 48.32 7 49 C8.32 48.67 9.64 48.34 11 48 C11 47.34 11 46.68 11 46 C11.598125 45.7525 12.19625 45.505 12.8125 45.25 C15.40860841 43.76650948 16.47719032 42.57195473 18 40 C18.14742985 37.27066259 18.14742985 37.27066259 17.6875 34.4375 C17.56761719 33.48746094 17.44773437 32.53742187 17.32421875 31.55859375 C17.21722656 30.71425781 17.11023438 29.86992187 17 29 C17 28.01 17 27.02 17 26 C16.37400383 24.31763529 15.71247732 22.6476038 15 21 C14.67 21.66 14.34 22.32 14 23 C13.34 23 12.68 23 12 23 C12 22.34 12 21.68 12 21 C10.68 20.67 9.36 20.34 8 20 Z M45 20 C40.16088894 27.5890118 37.79229028 35.9951468 39 45 C41.80310462 47.82145555 44.0725203 49.40492732 48 50 C49.423125 50.309375 49.423125 50.309375 50.875 50.625 C54.16981777 51.02037813 56.77016136 50.69210828 60 50 C59.67 49.01 59.34 48.02 59 47 C60.32 47.33 61.64 47.66 63 48 C63.433125 46.2984375 63.433125 46.2984375 63.875 44.5625 C64.24625 43.386875 64.6175 42.21125 65 41 C65.66 40.67 66.32 40.34 67 40 C68.09163808 33.99599056 68.11227478 28.08778799 68 22 C63.26101734 19.54846925 58.87937667 19.76845794 53.6875 19.875 C52.43356445 19.88853516 52.43356445 19.88853516 51.15429688 19.90234375 C49.10274031 19.92579011 47.05133223 19.96165734 45 20 Z M22 21 C22.66 21.66 23.32 22.32 24 23 C24 22.34 24 21.68 24 21 C23.34 21 22.68 21 22 21 Z M39 21 C39 24 39 24 39 24 Z M-10 21 C-10 21.66 -10 22.32 -10 23 C-11.32 22.67 -12.64 22.34 -14 22 C-14.66 23.98 -15.32 25.96 -16 28 C-15.01 28.99 -14.02 29.98 -13 31 C-11.68 30.34 -10.36 29.68 -9 29 C-9 26.36 -9 23.72 -9 21 C-9.33 21 -9.66 21 -10 21 Z M-4 23 C-3 25 -3 25 -3 25 Z M24 24 C25 26 25 26 25 26 Z M68 25 C68.33 25.99 68.66 26.98 69 28 C69 27.01 69 26.02 69 25 C68.67 25 68.34 25 68 25 Z M36 26 C37 28 37 28 37 28 Z M17 27 C18 29 18 29 18 29 Z M35 29 C36 31 36 31 36 31 Z M18 33 C19 36 19 36 19 36 Z M-16 34 C-16.33 35.32 -16.66 36.64 -17 38 C-16.34 38 -15.68 38 -15 38 C-15.33 36.68 -15.66 35.36 -16 34 Z M70 34 C69.67 35.98 69.34 37.96 69 40 C69.66 39.01 70.32 38.02 71 37 C70.67 36.01 70.34 35.02 70 34 Z M25 35 C26 38 26 38 26 38 Z M-24 38 C-23 41 -23 41 -23 41 Z M37 40 C38 42 38 42 38 42 Z M68 40 C69 42 69 42 69 42 Z M-23 41 C-22 43 -22 43 -22 43 Z M24 41 C23.34 42.65 22.68 44.3 22 46 C22.99 45.01 23.98 44.02 25 43 C24.67 42.34 24.34 41.68 24 41 Z M29 41 C30 43 30 43 30 43 Z M38 42 C39 44 39 44 39 44 Z M30 43 C31 45 31 45 31 45 Z M-2 49 C-1.67 49.66 -1.34 50.32 -1 51 C-0.34 50.67 0.32 50.34 1 50 C0.01 49.67 -0.98 49.34 -2 49 Z " fill="#FFFFFF" transform="translate(156,0)"/>
<!-- E -->
<path d="M0 0 C2.8125 1.3125 2.8125 1.3125 5 3 C5.2165625 3.9590625 5.2165625 3.9590625 5.4375 4.9375 C5.83960692 7.3672388 5.83960692 7.3672388 8.9375 8.6875 C12.76033708 11.57413208 12.94074199 13.4086509 13.578125 17.9765625 C13.85262384 20.2178887 13.85262384 20.2178887 16 22 C16.54929343 27.60279298 15.49231257 31.11123303 13 36 C12.01 36.99 12.01 36.99 11 38 C11 38.99 11 39.98 11 41 C9.04551764 44.49439184 6.58329684 46.28347429 3 48 C-3.894464 49.19921865 -11.03938969 48.65645764 -18 48.4375 C-19.93874596 48.40235314 -21.877553 48.37042007 -23.81640625 48.34179688 C-28.54578853 48.26500946 -33.27221904 48.1444106 -38 48 C-38 45.69 -38 43.38 -38 41 C-39.35618499 42.12534105 -39.35618499 42.12534105 -39.0625 45.0625 C-39.041875 46.031875 -39.02125 47.00125 -39 48 C-43.96622349 48.02465098 -48.93241166 48.04283649 -53.89868164 48.05493164 C-55.58944316 48.0599719 -57.28020029 48.06680405 -58.97094727 48.07543945 C-61.39600707 48.08751857 -63.82100944 48.09323123 -66.24609375 48.09765625 C-67.38672523 48.10539818 -67.38672523 48.10539818 -68.55039978 48.11329651 C-70.3673257 48.11349238 -72.18413127 48.06197277 -74 48 C-75.52022484 46.47977516 -75.14914755 45.12370967 -75.17700195 43.00268555 C-75.18983719 42.15477951 -75.20267242 41.30687347 -75.21589661 40.43327332 C-75.22328354 39.51041031 -75.23067047 38.5875473 -75.23828125 37.63671875 C-75.246353 36.69319046 -75.25442474 35.74966217 -75.26274109 34.77754211 C-75.27659992 32.77594857 -75.28731399 30.7743312 -75.29516602 28.77270508 C-75.31236997 25.71064407 -75.35623872 22.6496649 -75.40039062 19.58789062 C-75.41051783 17.6458413 -75.41903385 15.70378276 -75.42578125 13.76171875 C-75.44328934 12.84492844 -75.46079742 11.92813812 -75.47883606 10.98356628 C-75.46576234 7.1522006 -75.43664573 4.72538103 -73.43530273 1.40063477 C-70.12768425 -0.5017018 -67.30012192 -0.40288181 -63.609375 -0.171875 C-62.90476135 -0.14401917 -62.20014771 -0.11616333 -61.47418213 -0.08746338 C-59.23143769 0.00564998 -56.99130712 0.12740598 -54.75 0.25 C-53.2266463 0.31830166 -51.70320735 0.38472941 -50.1796875 0.44921875 C-46.45189145 0.6111077 -42.72589947 0.79870268 -39 1 C-39.33 3.31 -39.66 5.62 -40 8 C-47.59 8 -55.18 8 -63 8 C-63 11.96 -63 15.92 -63 20 C-54.75 20 -46.5 20 -38 20 C-38 22.64 -38 25.28 -38 28 C-45.92 28 -53.84 28 -62 28 C-62 29.32 -62 30.64 -62 32 C-63.32 32 -64.64 32 -66 32 C-66 34.31 -66 36.62 -66 39 C-47.685 39.495 -47.685 39.495 -29 40 C-29.08378906 37.26847656 -29.16757812 34.53695312 -29.25390625 31.72265625 C-29.33122568 29.08833111 -29.40678816 26.45396107 -29.48217773 23.81958008 C-29.53567534 21.9832625 -29.59101046 20.14699753 -29.64819336 18.31079102 C-29.72988864 15.67736153 -29.80505738 13.04381595 -29.87890625 10.41015625 C-29.90594131 9.58411392 -29.93297638 8.75807159 -29.96083069 7.90699768 C-30.01283011 5.9386419 -30.01187837 3.96900669 -30 2 C-28.39163783 0.39163783 -26.60292297 0.79692428 -24.37890625 0.71875 C-22.97608398 0.66267578 -22.97608398 0.66267578 -21.54492188 0.60546875 C-20.56072266 0.57066406 -19.57652344 0.53585937 -18.5625 0.5 C-16.62614952 0.43125383 -14.68993487 0.35853125 -12.75390625 0.28125 C-11.89095947 0.25095703 -11.0280127 0.22066406 -10.13891602 0.18945312 C-2.18790945 -0.51480222 -2.18790945 -0.51480222 0 0 Z M-7 1 C-3 2 -3 2 -3 2 Z M-23 7 C-23 18.55 -23 30.1 -23 42 C-22.67 42 -22.34 42 -22 42 C-22 30.45 -22 18.9 -22 7 C-22.33 7 -22.66 7 -23 7 Z M-21 8 C-21 19.22 -21 30.44 -21 42 C-6.61787557 43.47920052 -6.61787557 43.47920052 -2 40 C-2.33 39.34 -2.66 38.68 -3 38 C-2.4225 38.2475 -1.845 38.495 -1.25 38.75 C-0.5075 38.8325 0.235 38.915 1 39 C5.03819786 35.76944171 6.03726733 32.5971589 6.75 27.625 C7.20072666 23.40455947 6.51770502 21.4860531 4 18 C3.7525 16.700625 3.7525 16.700625 3.5 15.375 C2.90279109 12.53825768 2.37916067 11.64080046 0 10 C-3.10839021 9.2730774 -3.10839021 9.2730774 -6 9 C-6 8.67 -6 8.34 -6 8 C-10.95 8 -15.9 8 -21 8 Z M-65 16 C-64 20 -64 20 -64 20 Z M6 20 C7 22 7 22 7 22 Z M13 30 C14 33 14 33 14 33 Z " fill="#FFFFFF" transform="translate(430,8)"/>
<!-- B -->
<path d="M0 0 C0.84447523 2.93557293 1.12209423 5.53445289 1.11352539 8.58496094 C1.11344986 9.48559265 1.11337433 10.38622437 1.11329651 11.31414795 C1.10813522 12.27782288 1.10297394 13.2414978 1.09765625 14.234375 C1.0962413 15.22753723 1.09482635 16.22069946 1.09336853 17.24395752 C1.08777588 20.41266912 1.0752247 23.58130979 1.0625 26.75 C1.05748405 28.89973856 1.05292131 31.04947823 1.04882812 33.19921875 C1.03780885 38.46617312 1.02054923 43.73307454 1 49 C-2.3 49 -5.6 49 -9 49 C-9.33 41.41 -9.66 33.82 -10 26 C-10.99 28.64 -11.98 31.28 -13 34 C-14.02884312 36.18284964 -15.08881314 38.3514568 -16.1875 40.5 C-16.71730469 41.5415625 -17.24710937 42.583125 -17.79296875 43.65625 C-18.19128906 44.4296875 -18.58960938 45.203125 -19 46 C-20.485 45.505 -20.485 45.505 -22 45 C-24.63804589 45.39397335 -24.63804589 45.39397335 -27 46 C-27.66 44.35 -28.32 42.7 -29 41 C-29.66 41 -30.32 41 -31 41 C-32.17076699 37.01939223 -33.25749403 33.08378283 -34 29 C-34.99 29 -35.98 29 -37 29 C-37 35.6 -37 42.2 -37 49 C-40.63 49 -44.26 49 -48 49 C-48 33.49 -48 17.98 -48 2 C-45.36 2 -42.72 2 -40 2 C-40 2.66 -40 3.32 -40 4 C-39.01 4 -38.02 4 -37 4 C-37.33 5.65 -37.66 7.3 -38 9 C-37.34 9.33 -36.68 9.66 -36 10 C-36 10.99 -36 11.98 -36 13 C-35.34 13 -34.68 13 -34 13 C-33.01 15.64 -32.02 18.28 -31 21 C-30.34 20.67 -29.68 20.34 -29 20 C-28.896875 20.66 -28.79375 21.32 -28.6875 22 C-27.80786436 25.83841009 -26.43030104 29.33096691 -25 33 C-23.3516367 31.24755753 -23.3516367 31.24755753 -22 29 C-22.39938767 26.90178785 -22.39938767 26.90178785 -23 25 C-22.34 24.34 -21.68 23.68 -21 23 C-20.67 23.66 -20.34 24.32 -20 25 C-19.01 23.02 -18.02 21.04 -17 19 C-17.66 19 -18.32 19 -19 19 C-18.67 18.01 -18.34 17.02 -18 16 C-17.01 16.33 -16.02 16.66 -15 17 C-14.89042969 16.38511719 -14.78085937 15.77023438 -14.66796875 15.13671875 C-14.43013672 13.92435547 -14.43013672 13.92435547 -14.1875 12.6875 C-14.03667969 11.88699219 -13.88585937 11.08648437 -13.73046875 10.26171875 C-12.90795436 7.71500309 -11.96275697 6.76499808 -10 5 C-9.34 4.01 -8.68 3.02 -8 2 C-6.0546875 1.70703125 -6.0546875 1.70703125 -3.875 1.8125 C-2.59625 1.874375 -1.3175 1.93625 0 2 C0 1.34 0 0.68 0 0 Z M-8 14 C-8.12375 14.969375 -8.2475 15.93875 -8.375 16.9375 C-8.58125 17.948125 -8.7875 18.95875 -9 20 C-9.99 20.495 -9.99 20.495 -11 21 C-11 21.66 -11 22.32 -11 23 C-9.68 22.67 -8.36 22.34 -7 22 C-7 19.36 -7 16.72 -7 14 C-7.33 14 -7.66 14 -8 14 Z M-42 16 C-41 18 -41 18 -41 18 Z M-42 19 C-41 22 -41 22 -41 22 Z M-39 21 C-39.33 21.66 -39.66 22.32 -40 23 C-39.34 23 -38.68 23 -38 23 C-38.33 22.34 -38.66 21.68 -39 21 Z M-38 24 C-37 26 -37 26 -37 26 Z M-37 26 C-37 26.66 -37 27.32 -37 28 C-36.34 27.67 -35.68 27.34 -35 27 C-35.66 26.67 -36.32 26.34 -37 26 Z M-17 33 C-17.66 34.65 -18.32 36.3 -19 38 C-18.34 38 -17.68 38 -17 38 C-16.67 36.35 -16.34 34.7 -16 33 C-16.33 33 -16.66 33 -17 33 Z " fill="#FFFFFF" transform="translate(346,7)"/>
<!-- First O with orange lightning bolt -->
<path d="M0 0 C5.07375 0.12375 10.1475 0.2475 15.375 0.375 C17.77531494 0.42599854 17.77531494 0.42599854 20.22412109 0.47802734 C21.47789551 0.5136377 22.73166992 0.54924805 24.0234375 0.5859375 C25.95582275 0.63306885 25.95582275 0.63306885 27.92724609 0.68115234 C31 1 31 1 33 3 C33.54895517 4.29278942 34.04473537 5.60882007 34.5 6.9375 C35.45427769 9.71216611 36.33203737 11.49805605 38 14 C36.75 17.4375 36.75 17.4375 35 21 C34.608125 21.804375 34.21625 22.60875 33.8125 23.4375 C33.544375 23.953125 33.27625 24.46875 33 25 C33.66 25 34.32 25 35 25 C35.66 26.32 36.32 27.64 37 29 C37.99 29 38.98 29 40 29 C41.19287411 32.87684087 42 35.91621923 42 40 C41.01 40 40.02 40 39 40 C38.505 40.99 38.505 40.99 38 42 C37.67 41.67 37.34 41.34 37 41 C36.731875 41.78375 36.46375 42.5675 36.1875 43.375 C35 46 35 46 32 48 C29.53048339 48.17104718 27.17406627 48.23267622 24.70703125 48.1953125 C23.41514893 48.19031738 22.1232666 48.18532227 20.79223633 48.18017578 C18.32726685 48.15286377 18.32726685 48.15286377 15.8125 48.125 C10.594375 48.08375 5.37625 48.0425 0 48 C0 32.16 0 16.32 0 0 Z M6 8 C6 11.96 6 15.92 6 20 C6.33 20 6.66 20 7 20 C7 16.04 7 12.08 7 8 C6.67 8 6.34 8 6 8 Z M8 8 C8 11.63 8 15.26 8 19 C12.62 19 17.24 19 22 19 C22 18.34 22 17.68 22 17 C23.32 17 24.64 17 26 17 C25.67 15.02 25.34 13.04 25 11 C25.66 10.67 26.32 10.34 27 10 C23.25764681 7.55010899 19.55774581 7.76913857 15.25 7.875 C14.20392578 7.88853516 14.20392578 7.88853516 13.13671875 7.90234375 C11.42433042 7.92580112 9.71211996 7.96166896 8 8 Z M27 11 C27 13.31 27 15.62 27 18 C27.33 18 27.66 18 28 18 C28 15.69 28 13.38 28 11 C27.67 11 27.34 11 27 11 Z M35 12 C36 14 36 14 36 14 Z M35 15 C36 17 36 17 36 17 Z M6 27 C6 31.95 6 36.9 6 42 C7.32 42 8.64 42 10 42 C10 41.34 10 40.68 10 40 C13.3 40 16.6 40 20 40 C20 40.66 20 41.32 20 42 C21.98 42 23.96 42 26 42 C26 41.67 26 41.34 26 41 C24.35 41 22.7 41 21 41 C21 40.34 21 39.68 21 39 C23.31 39.66 25.62 40.32 28 41 C30.4294516 37.3558226 30.16179575 35.28758728 30 31 C29.360625 30.87625 28.72125 30.7525 28.0625 30.625 C27.0415625 30.315625 27.0415625 30.315625 26 30 C25.67 29.34 25.34 28.68 25 28 C21.23699626 26.74566542 17.72789091 26.89304578 13.8125 26.9375 C12.68811523 26.94426758 12.68811523 26.94426758 11.54101562 26.95117188 C9.69397617 26.96293646 7.84697787 26.98087135 6 27 Z M36 29 C37 31 37 31 37 31 Z " fill="#FFFFFF" transform="translate(90,8)"/>
<!-- Orange lightning bolt -->
<path d="M0 0 C0.99 0 1.98 0 3 0 C4.09266193 3.2779858 3.8361233 3.84131197 3 7 C2.96213099 8.66623639 2.95372155 10.33397597 3 12 C4.65 12 6.3 12 8 12 C7.88544319 13.91731918 7.75793742 15.8338675 7.625 17.75 C7.55539063 18.81734375 7.48578125 19.8846875 7.4140625 20.984375 C6.78056462 25.59815205 5.19978511 27.80021489 2 31 C0.04444939 34.08771148 -0.20149192 36.37314539 0 40 C-1.65 40 -3.3 40 -5 40 C-5 35.05 -5 30.1 -5 25 C-5.99 24.67 -6.98 24.34 -8 24 C-9.11256539 20.66230383 -8.80685967 20.22743866 -8 17 C-7.96111651 14.66699067 -7.9551365 12.33290199 -8 10 C-7.01 11.485 -7.01 11.485 -6 13 C-5.67 12.34 -5.34 11.68 -5 11 C-4.71125 10.443125 -4.4225 9.88625 -4.125 9.3125 C-2.63661127 6.25303428 -1.32568231 3.13343091 0 0 Z M-4 23 C-3 25 -3 25 -3 25 Z " fill="#f97316" transform="translate(156,0)"/>
<!-- Second O -->
<path d="M0 0 C1.77406707 0.06451153 3.54572644 0.20183279 5.3125 0.375 C6.76076172 0.51035156 6.76076172 0.51035156 8.23828125 0.6484375 C12.40783622 1.17921536 16.206871 2.154694 20 4 C20.495 5.485 20.495 5.485 21 7 C21.99 7.66 22.98 8.32 24 9 C29.30351719 15.25964424 29.53265328 21.80839155 29.46875 29.64453125 C28.97386804 33.18706127 28.19187709 34.31261878 26 37 C26 38.32 26 39.64 26 41 C25.46375 41.061875 24.9275 41.12375 24.375 41.1875 C20.95630034 42.35705515 18.73076115 44.67594796 16 47 C11.1562941 48.61456863 6.19739017 48.22615798 1.125 48.25 C-0.50888672 48.2809375 -0.50888672 48.2809375 -2.17578125 48.3125 C-3.22894531 48.31765625 -4.28210938 48.3228125 -5.3671875 48.328125 C-6.32737793 48.3374707 -7.28756836 48.34681641 -8.27685547 48.35644531 C-11.46736587 47.93882426 -13.37194412 46.81018625 -16 45 C-15.7525 44.46375 -15.505 43.9275 -15.25 43.375 C-14.86836043 39.7494241 -16.97786872 37.94653416 -19 35 C-21.12086436 29.74833588 -20.99910605 25.70972945 -20.19140625 20.234375 C-19.83682248 17.82945659 -19.83682248 17.82945659 -21 15 C-20.34 14.67 -19.68 14.34 -19 14 C-18.67 13.01 -18.34 12.02 -18 11 C-17.67 11.33 -17.34 11.66 -17 12 C-16.38125 11.05125 -15.7625 10.1025 -15.125 9.125 C-11.37318529 3.60762543 -9.3305214 2.7758018 -3.03125 1.5 C-1.01766043 1.1901935 -1.01766043 1.1901935 0 0 Z M-5 9 C-4.67 9.66 -4.34 10.32 -4 11 C-3.34 10.34 -2.68 9.68 -2 9 C-2.99 9 -3.98 9 -5 9 Z M12 9 C13 11 13 11 13 11 Z M-4 12 C-8.83911106 19.5890118 -11.20770972 27.9951468 -10 37 C-7.19689538 39.82145555 -4.9274797 41.40492732 -1 42 C0.423125 42.309375 0.423125 42.309375 1.875 42.625 C5.16981777 43.02037813 7.77016136 42.69210828 11 42 C10.67 41.01 10.34 40.02 10 39 C11.32 39.33 12.64 39.66 14 40 C14.433125 38.2984375 14.433125 38.2984375 14.875 36.5625 C15.24625 35.386875 15.6175 34.21125 16 33 C16.66 32.67 17.32 32.34 18 32 C19.09163808 25.99599056 19.11227478 20.08778799 19 14 C14.26101734 11.54846925 9.87937667 11.76845794 4.6875 11.875 C3.43356445 11.88853516 3.43356445 11.88853516 2.15429688 11.90234375 C0.10274031 11.92579011 -1.94866777 11.96165734 -4 12 Z M-10 13 C-10 16 -10 16 -10 16 Z M19 17 C19.33 17.99 19.66 18.98 20 20 C20 19.01 20 18.02 20 17 C19.67 17 19.34 17 19 17 Z M-13 18 C-12 20 -12 20 -12 20 Z M-14 21 C-13 23 -13 23 -13 23 Z M21 26 C20.67 27.98 20.34 29.96 20 32 C20.66 31.01 21.32 30.02 22 29 C21.67 28.01 21.34 27.02 21 26 Z M-12 32 C-11 34 -11 34 -11 34 Z M19 32 C20 34 20 34 20 34 Z M-11 34 C-10 36 -10 36 -10 36 Z " fill="#FFFFFF" transform="translate(205,8)"/>
<!-- T -->
<path d="M0 0 C12.21 0 24.42 0 37 0 C37 2.31 37 4.62 37 7 C34 8 34 8 24 7 C24 20.53 24 34.06 24 48 C20.04 48 16.08 48 12 48 C12 34.8 12 21.6 12 8 C8.37 8 4.74 8 1 8 C0.67 7.67 0.34 7.34 0 7 C0 4.69 0 2.38 0 0 Z " fill="#FFFFFF" transform="translate(235,8)"/>
</svg>