<?xml version="1.0" encoding="UTF-8"?>
<svg version="1.1" xmlns="http://www.w3.org/2000/svg" width="512" height="56">
<path d="M0 0 C0.99 0 1.98 0 3 0 C3.33 0.99 3.66 1.98 4 3 C3.67 3.66 3.34 4.32 3 5 C2.960008 6.99960012 2.95653201 9.00047242 3 11 C3.67546875 10.97679687 4.3509375 10.95359375 5.046875 10.9296875 C6.38492188 10.90261719 6.38492188 10.90261719 7.75 10.875 C9.07257813 10.84019531 9.07257813 10.84019531 10.421875 10.8046875 C13.14906426 11.01129275 14.71315408 11.52694159 17 13 C17.495 13.99 17.495 13.99 18 15 C18.99 15 19.98 15 21 15 C21 16.32 21 17.64 21 19 C21.928125 19.0928125 21.928125 19.0928125 22.875 19.1875 C25 20 25 20 26.25 22.3125 C27 25 27 25 27 29 C27.66 29 28.32 29 29 29 C28.505 26.03 28.505 26.03 28 23 C28.66 22.67 29.32 22.34 30 22 C30.495 20.515 30.495 20.515 31 19 C31.33 19.33 31.66 19.66 32 20 C32.61875 19.05125 33.2375 18.1025 33.875 17.125 C36.86237458 12.73180209 38.3747277 11.03685577 43.4375 10 C45.84329145 9.50571219 47.80084246 9.09957877 50 8 C51.62860483 8.06242039 53.25493456 8.19712931 54.875 8.375 C56.17050781 8.51035156 56.17050781 8.51035156 57.4921875 8.6484375 C61.5529604 9.21770473 65.30069209 10.20033669 69 12 C69.495 13.485 69.495 13.485 70 15 C70.99 15.66 71.98 16.32 73 17 C78.30351719 23.25964424 78.53265328 29.80839155 78.46875 37.64453125 C77.97386804 41.18706127 77.19187709 42.31261878 75 45 C75 46.32 75 47.64 75 49 C74.46375 49.061875 73.9275 49.12375 73.375 49.1875 C69.95630034 50.35705515 67.73076115 52.67594796 65 55 C60.1562941 56.61456863 55.19739017 56.22615798 50.125 56.25 C48.49111328 56.2809375 48.49111328 56.2809375 46.82421875 56.3125 C45.77105469 56.31765625 44.71789062 56.3228125 43.6328125 56.328125 C42.67262207 56.3374707 41.71243164 56.34681641 40.72314453 56.35644531 C37.49582902 55.93400667 35.59517964 54.93856792 33 53 C33 52.34 33 51.68 33 51 C32.34 51 31.68 51 31 51 C31 50.34 31 49.68 31 49 C30.34 49 29.68 49 29 49 C28.34 47.35 27.68 45.7 27 44 C26.01 45.65 25.02 47.3 24 49 C22.68 48.67 21.36 48.34 20 48 C19.67 48.99 19.34 49.98 19 51 C18.34 51 17.68 51 17 51 C16.67 52.65 16.34 54.3 16 56 C11.90666095 56.07408587 7.81358067 56.1285704 3.71972656 56.16479492 C2.32675378 56.17989358 0.93382862 56.20037444 -0.45898438 56.22631836 C-2.45942885 56.26265122 -4.46021827 56.27811192 -6.4609375 56.29296875 C-8.26763916 56.31653442 -8.26763916 56.31653442 -10.11083984 56.34057617 C-11.54097412 56.17199097 -11.54097412 56.17199097 -13 56 C-13.66 55.01 -14.32 54.02 -15 53 C-15.66 53 -16.32 53 -17 53 C-17.33 51.68 -17.66 50.36 -18 49 C-18.99 49 -19.98 49 -21 49 C-26.54667373 41.10019195 -24.95531013 33.1377491 -24 24 C-23.34 24 -22.68 24 -22 24 C-21.5978125 22.8553125 -21.5978125 22.8553125 -21.1875 21.6875 C-20.01888538 19.0427406 -18.99065202 17.99065202 -17 16 C-15.80972016 13.40084462 -15.80972016 13.40084462 -15 11 C-14.05125 11.20625 -13.1025 11.4125 -12.125 11.625 C-11.09375 11.74875 -10.0625 11.8725 -9 12 C-8.34 11.34 -7.68 10.68 -7 10 C-6.67 10.99 -6.34 11.98 -6 13 C-5.67 12.34 -5.34 11.68 -5 11 C-4.566875 10.1646875 -4.566875 10.1646875 -4.125 9.3125 C-2.63661127 6.25303428 -1.32568231 3.13343091 0 0 Z M9 13 C8.34 14.98 7.68 16.96 7 19 C7.99 19 8.98 19 10 19 C10 17.02 10 15.04 10 13 C9.67 13 9.34 13 9 13 Z M-8 17 C-7 19 -7 19 -7 19 Z M44 17 C44.33 17.66 44.66 18.32 45 19 C45.66 18.34 46.32 17.68 47 17 C46.01 17 45.02 17 44 17 Z M61 17 C62 19 62 19 62 19 Z M-9 19 C-8 21 -8 21 -8 21 Z M8 20 C5.7986134 23.80427492 5.7986134 23.80427492 5 28 C4.38125 28.226875 3.7625 28.45375 3.125 28.6875 C0.29679816 30.43433055 -0.18424894 31.81115493 -1 35 C-0.70480232 37.7336432 -0.70480232 37.7336432 0 40 C-1.65 40 -3.3 40 -5 40 C-5 38.35 -5 36.7 -5 35 C-7.31 35 -9.62 35 -12 35 C-12.33 36.98 -12.66 38.96 -13 41 C-12.2575 41.4125 -11.515 41.825 -10.75 42.25 C-8 44 -8 44 -6.1875 46.125 C-2.95577663 48.8950486 -0.19926402 48.72004907 4 49 C4 48.34 4 47.68 4 47 C4.99 47 5.98 47 7 47 C7 47.66 7 48.32 7 49 C8.32 48.67 9.64 48.34 11 48 C11 47.34 11 46.68 11 46 C11.598125 45.7525 12.19625 45.505 12.8125 45.25 C15.40860841 43.76650948 16.47719032 42.57195473 18 40 C18.14742985 37.27066259 18.14742985 37.27066259 17.6875 34.4375 C17.56761719 33.48746094 17.44773437 32.53742187 17.32421875 31.55859375 C17.21722656 30.71425781 17.11023438 29.86992187 17 29 C17 28.01 17 27.02 17 26 C16.37400383 24.31763529 15.71247732 22.6476038 15 21 C14.67 21.66 14.34 22.32 14 23 C13.34 23 12.68 23 12 23 C12 22.34 12 21.68 12 21 C10.68 20.67 9.36 20.34 8 20 Z M45 20 C40.16088894 27.5890118 37.79229028 35.9951468 39 45 C41.80310462 47.82145555 44.0725203 49.40492732 48 50 C49.423125 50.309375 49.423125 50.309375 50.875 50.625 C54.16981777 51.02037813 56.77016136 50.69210828 60 50 C59.67 49.01 59.34 48.02 59 47 C60.32 47.33 61.64 47.66 63 48 C63.433125 46.2984375 63.433125 46.2984375 63.875 44.5625 C64.24625 43.386875 64.6175 42.21125 65 41 C65.66 40.67 66.32 40.34 67 40 C68.09163808 33.99599056 68.11227478 28.08778799 68 22 C63.26101734 19.54846925 58.87937667 19.76845794 53.6875 19.875 C52.43356445 19.88853516 52.43356445 19.88853516 51.15429688 19.90234375 C49.10274031 19.92579011 47.05133223 19.96165734 45 20 Z M22 21 C22.66 21.66 23.32 22.32 24 23 C24 22.34 24 21.68 24 21 C23.34 21 22.68 21 22 21 Z M39 21 C39 24 39 24 39 24 Z M-10 21 C-10 21.66 -10 22.32 -10 23 C-11.32 22.67 -12.64 22.34 -14 22 C-14.66 23.98 -15.32 25.96 -16 28 C-15.01 28.99 -14.02 29.98 -13 31 C-11.68 30.34 -10.36 29.68 -9 29 C-9 26.36 -9 23.72 -9 21 C-9.33 21 -9.66 21 -10 21 Z M-4 23 C-3 25 -3 25 -3 25 Z M24 24 C25 26 25 26 25 26 Z M68 25 C68.33 25.99 68.66 26.98 69 28 C69 27.01 69 26.02 69 25 C68.67 25 68.34 25 68 25 Z M36 26 C37 28 37 28 37 28 Z M17 27 C18 29 18 29 18 29 Z M35 29 C36 31 36 31 36 31 Z M18 33 C19 36 19 36 19 36 Z M-16 34 C-16.33 35.32 -16.66 36.64 -17 38 C-16.34 38 -15.68 38 -15 38 C-15.33 36.68 -15.66 35.36 -16 34 Z M70 34 C69.67 35.98 69.34 37.96 69 40 C69.66 39.01 70.32 38.02 71 37 C70.67 36.01 70.34 35.02 70 34 Z M25 35 C26 38 26 38 26 38 Z M-24 38 C-23 41 -23 41 -23 41 Z M37 40 C38 42 38 42 38 42 Z M68 40 C69 42 69 42 69 42 Z M-23 41 C-22 43 -22 43 -22 43 Z M24 41 C23.34 42.65 22.68 44.3 22 46 C22.99 45.01 23.98 44.02 25 43 C24.67 42.34 24.34 41.68 24 41 Z M29 41 C30 43 30 43 30 43 Z M38 42 C39 44 39 44 39 44 Z M30 43 C31 45 31 45 31 45 Z M-2 49 C-1.67 49.66 -1.34 50.32 -1 51 C-0.34 50.67 0.32 50.34 1 50 C0.01 49.67 -0.98 49.34 -2 49 Z " fill="#272625" transform="translate(156,0)"/>
<path d="M0 0 C2.8125 1.3125 2.8125 1.3125 5 3 C5.2165625 3.9590625 5.2165625 3.9590625 5.4375 4.9375 C5.83960692 7.3672388 5.83960692 7.3672388 8.9375 8.6875 C12.76033708 11.57413208 12.94074199 13.4086509 13.578125 17.9765625 C13.85262384 20.2178887 13.85262384 20.2178887 16 22 C16.54929343 27.60279298 15.49231257 31.11123303 13 36 C12.01 36.99 12.01 36.99 11 38 C11 38.99 11 39.98 11 41 C9.04551764 44.49439184 6.58329684 46.28347429 3 48 C-3.894464 49.19921865 -11.03938969 48.65645764 -18 48.4375 C-19.93874596 48.40235314 -21.877553 48.37042007 -23.81640625 48.34179688 C-28.54578853 48.26500946 -33.27221904 48.1444106 -38 48 C-38 45.69 -38 43.38 -38 41 C-39.35618499 42.12534105 -39.35618499 42.12534105 -39.0625 45.0625 C-39.041875 46.031875 -39.02125 47.00125 -39 48 C-43.96622349 48.02465098 -48.93241166 48.04283649 -53.89868164 48.05493164 C-55.58944316 48.0599719 -57.28020029 48.06680405 -58.97094727 48.07543945 C-61.39600707 48.08751857 -63.82100944 48.09323123 -66.24609375 48.09765625 C-67.38672523 48.10539818 -67.38672523 48.10539818 -68.55039978 48.11329651 C-70.3673257 48.11349238 -72.18413127 48.06197277 -74 48 C-75.52022484 46.47977516 -75.14914755 45.12370967 -75.17700195 43.00268555 C-75.18983719 42.15477951 -75.20267242 41.30687347 -75.21589661 40.43327332 C-75.22328354 39.51041031 -75.23067047 38.5875473 -75.23828125 37.63671875 C-75.246353 36.69319046 -75.25442474 35.74966217 -75.26274109 34.77754211 C-75.27659992 32.77594857 -75.28731399 30.7743312 -75.29516602 28.77270508 C-75.31236997 25.71064407 -75.35623872 22.6496649 -75.40039062 19.58789062 C-75.41051783 17.6458413 -75.41903385 15.70378276 -75.42578125 13.76171875 C-75.44328934 12.84492844 -75.46079742 11.92813812 -75.47883606 10.98356628 C-75.46576234 7.1522006 -75.43664573 4.72538103 -73.43530273 1.40063477 C-70.12768425 -0.5017018 -67.30012192 -0.40288181 -63.609375 -0.171875 C-62.90476135 -0.14401917 -62.20014771 -0.11616333 -61.47418213 -0.08746338 C-59.23143769 0.00564998 -56.99130712 0.12740598 -54.75 0.25 C-53.2266463 0.31830166 -51.70320735 0.38472941 -50.1796875 0.44921875 C-46.45189145 0.6111077 -42.72589947 0.79870268 -39 1 C-39.33 3.31 -39.66 5.62 -40 8 C-47.59 8 -55.18 8 -63 8 C-63 11.96 -63 15.92 -63 20 C-54.75 20 -46.5 20 -38 20 C-38 22.64 -38 25.28 -38 28 C-45.92 28 -53.84 28 -62 28 C-62 29.32 -62 30.64 -62 32 C-63.32 32 -64.64 32 -66 32 C-66 34.31 -66 36.62 -66 39 C-47.685 39.495 -47.685 39.495 -29 40 C-29.08378906 37.26847656 -29.16757812 34.53695312 -29.25390625 31.72265625 C-29.33122568 29.08833111 -29.40678816 26.45396107 -29.48217773 23.81958008 C-29.53567534 21.9832625 -29.59101046 20.14699753 -29.64819336 18.31079102 C-29.72988864 15.67736153 -29.80505738 13.04381595 -29.87890625 10.41015625 C-29.90594131 9.58411392 -29.93297638 8.75807159 -29.96083069 7.90699768 C-30.01283011 5.9386419 -30.01187837 3.96900669 -30 2 C-28.39163783 0.39163783 -26.60292297 0.79692428 -24.37890625 0.71875 C-22.97608398 0.66267578 -22.97608398 0.66267578 -21.54492188 0.60546875 C-20.56072266 0.57066406 -19.57652344 0.53585937 -18.5625 0.5 C-16.62614952 0.43125383 -14.68993487 0.35853125 -12.75390625 0.28125 C-11.89095947 0.25095703 -11.0280127 0.22066406 -10.13891602 0.18945312 C-2.18790945 -0.51480222 -2.18790945 -0.51480222 0 0 Z M-7 1 C-3 2 -3 2 -3 2 Z M-23 7 C-23 18.55 -23 30.1 -23 42 C-22.67 42 -22.34 42 -22 42 C-22 30.45 -22 18.9 -22 7 C-22.33 7 -22.66 7 -23 7 Z M-21 8 C-21 19.22 -21 30.44 -21 42 C-6.61787557 43.47920052 -6.61787557 43.47920052 -2 40 C-2.33 39.34 -2.66 38.68 -3 38 C-2.4225 38.2475 -1.845 38.495 -1.25 38.75 C-0.5075 38.8325 0.235 38.915 1 39 C5.03819786 35.76944171 6.03726733 32.5971589 6.75 27.625 C7.20072666 23.40455947 6.51770502 21.4860531 4 18 C3.7525 16.700625 3.7525 16.700625 3.5 15.375 C2.90279109 12.53825768 2.37916067 11.64080046 0 10 C-3.10839021 9.2730774 -3.10839021 9.2730774 -6 9 C-6 8.67 -6 8.34 -6 8 C-10.95 8 -15.9 8 -21 8 Z M-65 16 C-64 20 -64 20 -64 20 Z M6 20 C7 22 7 22 7 22 Z M13 30 C14 33 14 33 14 33 Z " fill="#292929" transform="translate(430,8)"/>
<path d="M0 0 C0.84447523 2.93557293 1.12209423 5.53445289 1.11352539 8.58496094 C1.11344986 9.48559265 1.11337433 10.38622437 1.11329651 11.31414795 C1.10813522 12.27782288 1.10297394 13.2414978 1.09765625 14.234375 C1.0962413 15.22753723 1.09482635 16.22069946 1.09336853 17.24395752 C1.08777588 20.41266912 1.0752247 23.58130979 1.0625 26.75 C1.05748405 28.89973856 1.05292131 31.04947823 1.04882812 33.19921875 C1.03780885 38.46617312 1.02054923 43.73307454 1 49 C-2.3 49 -5.6 49 -9 49 C-9.33 41.41 -9.66 33.82 -10 26 C-10.99 28.64 -11.98 31.28 -13 34 C-14.02884312 36.18284964 -15.08881314 38.3514568 -16.1875 40.5 C-16.71730469 41.5415625 -17.24710937 42.583125 -17.79296875 43.65625 C-18.19128906 44.4296875 -18.58960938 45.203125 -19 46 C-20.485 45.505 -20.485 45.505 -22 45 C-24.63804589 45.39397335 -24.63804589 45.39397335 -27 46 C-27.66 44.35 -28.32 42.7 -29 41 C-29.66 41 -30.32 41 -31 41 C-32.17076699 37.01939223 -33.25749403 33.08378283 -34 29 C-34.99 29 -35.98 29 -37 29 C-37 35.6 -37 42.2 -37 49 C-40.63 49 -44.26 49 -48 49 C-48 33.49 -48 17.98 -48 2 C-45.36 2 -42.72 2 -40 2 C-40 2.66 -40 3.32 -40 4 C-39.01 4 -38.02 4 -37 4 C-37.33 5.65 -37.66 7.3 -38 9 C-37.34 9.33 -36.68 9.66 -36 10 C-36 10.99 -36 11.98 -36 13 C-35.34 13 -34.68 13 -34 13 C-33.01 15.64 -32.02 18.28 -31 21 C-30.34 20.67 -29.68 20.34 -29 20 C-28.896875 20.66 -28.79375 21.32 -28.6875 22 C-27.80786436 25.83841009 -26.43030104 29.33096691 -25 33 C-23.3516367 31.24755753 -23.3516367 31.24755753 -22 29 C-22.39938767 26.90178785 -22.39938767 26.90178785 -23 25 C-22.34 24.34 -21.68 23.68 -21 23 C-20.67 23.66 -20.34 24.32 -20 25 C-19.01 23.02 -18.02 21.04 -17 19 C-17.66 19 -18.32 19 -19 19 C-18.67 18.01 -18.34 17.02 -18 16 C-17.01 16.33 -16.02 16.66 -15 17 C-14.89042969 16.38511719 -14.78085937 15.77023438 -14.66796875 15.13671875 C-14.43013672 13.92435547 -14.43013672 13.92435547 -14.1875 12.6875 C-14.03667969 11.88699219 -13.88585937 11.08648437 -13.73046875 10.26171875 C-12.90795436 7.71500309 -11.96275697 6.76499808 -10 5 C-9.34 4.01 -8.68 3.02 -8 2 C-6.0546875 1.70703125 -6.0546875 1.70703125 -3.875 1.8125 C-2.59625 1.874375 -1.3175 1.93625 0 2 C0 1.34 0 0.68 0 0 Z M-8 14 C-8.12375 14.969375 -8.2475 15.93875 -8.375 16.9375 C-8.58125 17.948125 -8.7875 18.95875 -9 20 C-9.99 20.495 -9.99 20.495 -11 21 C-11 21.66 -11 22.32 -11 23 C-9.68 22.67 -8.36 22.34 -7 22 C-7 19.36 -7 16.72 -7 14 C-7.33 14 -7.66 14 -8 14 Z M-42 16 C-41 18 -41 18 -41 18 Z M-42 19 C-41 22 -41 22 -41 22 Z M-39 21 C-39.33 21.66 -39.66 22.32 -40 23 C-39.34 23 -38.68 23 -38 23 C-38.33 22.34 -38.66 21.68 -39 21 Z M-38 24 C-37 26 -37 26 -37 26 Z M-37 26 C-37 26.66 -37 27.32 -37 28 C-36.34 27.67 -35.68 27.34 -35 27 C-35.66 26.67 -36.32 26.34 -37 26 Z M-17 33 C-17.66 34.65 -18.32 36.3 -19 38 C-18.34 38 -17.68 38 -17 38 C-16.67 36.35 -16.34 34.7 -16 33 C-16.33 33 -16.66 33 -17 33 Z " fill="#272727" transform="translate(346,7)"/>
<path d="M0 0 C5.07375 0.12375 10.1475 0.2475 15.375 0.375 C17.77531494 0.42599854 17.77531494 0.42599854 20.22412109 0.47802734 C21.47789551 0.5136377 22.73166992 0.54924805 24.0234375 0.5859375 C25.95582275 0.63306885 25.95582275 0.63306885 27.92724609 0.68115234 C31 1 31 1 33 3 C33.54895517 4.29278942 34.04473537 5.60882007 34.5 6.9375 C35.45427769 9.71216611 36.33203737 11.49805605 38 14 C36.75 17.4375 36.75 17.4375 35 21 C34.608125 21.804375 34.21625 22.60875 33.8125 23.4375 C33.544375 23.953125 33.27625 24.46875 33 25 C33.66 25 34.32 25 35 25 C35.66 26.32 36.32 27.64 37 29 C37.99 29 38.98 29 40 29 C41.19287411 32.87684087 42 35.91621923 42 40 C41.01 40 40.02 40 39 40 C38.505 40.99 38.505 40.99 38 42 C37.67 41.67 37.34 41.34 37 41 C36.731875 41.78375 36.46375 42.5675 36.1875 43.375 C35 46 35 46 32 48 C29.53048339 48.17104718 27.17406627 48.23267622 24.70703125 48.1953125 C23.41514893 48.19031738 22.1232666 48.18532227 20.79223633 48.18017578 C18.32726685 48.15286377 18.32726685 48.15286377 15.8125 48.125 C10.594375 48.08375 5.37625 48.0425 0 48 C0 32.16 0 16.32 0 0 Z M6 8 C6 11.96 6 15.92 6 20 C6.33 20 6.66 20 7 20 C7 16.04 7 12.08 7 8 C6.67 8 6.34 8 6 8 Z M8 8 C8 11.63 8 15.26 8 19 C12.62 19 17.24 19 22 19 C22 18.34 22 17.68 22 17 C23.32 17 24.64 17 26 17 C25.67 15.02 25.34 13.04 25 11 C25.66 10.67 26.32 10.34 27 10 C23.25764681 7.55010899 19.55774581 7.76913857 15.25 7.875 C14.20392578 7.88853516 14.20392578 7.88853516 13.13671875 7.90234375 C11.42433042 7.92580112 9.71211996 7.96166896 8 8 Z M27 11 C27 13.31 27 15.62 27 18 C27.33 18 27.66 18 28 18 C28 15.69 28 13.38 28 11 C27.67 11 27.34 11 27 11 Z M35 12 C36 14 36 14 36 14 Z M35 15 C36 17 36 17 36 17 Z M6 27 C6 31.95 6 36.9 6 42 C7.32 42 8.64 42 10 42 C10 41.34 10 40.68 10 40 C13.3 40 16.6 40 20 40 C20 40.66 20 41.32 20 42 C21.98 42 23.96 42 26 42 C26 41.67 26 41.34 26 41 C24.35 41 22.7 41 21 41 C21 40.34 21 39.68 21 39 C23.31 39.66 25.62 40.32 28 41 C30.4294516 37.3558226 30.16179575 35.28758728 30 31 C29.360625 30.87625 28.72125 30.7525 28.0625 30.625 C27.0415625 30.315625 27.0415625 30.315625 26 30 C25.67 29.34 25.34 28.68 25 28 C21.23699626 26.74566542 17.72789091 26.89304578 13.8125 26.9375 C12.68811523 26.94426758 12.68811523 26.94426758 11.54101562 26.95117188 C9.69397617 26.96293646 7.84697787 26.98087135 6 27 Z M36 29 C37 31 37 31 37 31 Z " fill="#282828" transform="translate(90,8)"/>
<path d="M0 0 C1.77406707 0.06451153 3.54572644 0.20183279 5.3125 0.375 C6.76076172 0.51035156 6.76076172 0.51035156 8.23828125 0.6484375 C12.40783622 1.17921536 16.206871 2.154694 20 4 C20.495 5.485 20.495 5.485 21 7 C21.99 7.66 22.98 8.32 24 9 C29.30351719 15.25964424 29.53265328 21.80839155 29.46875 29.64453125 C28.97386804 33.18706127 28.19187709 34.31261878 26 37 C26 38.32 26 39.64 26 41 C25.46375 41.061875 24.9275 41.12375 24.375 41.1875 C20.95630034 42.35705515 18.73076115 44.67594796 16 47 C11.1562941 48.61456863 6.19739017 48.22615798 1.125 48.25 C-0.50888672 48.2809375 -0.50888672 48.2809375 -2.17578125 48.3125 C-3.22894531 48.31765625 -4.28210938 48.3228125 -5.3671875 48.328125 C-6.32737793 48.3374707 -7.28756836 48.34681641 -8.27685547 48.35644531 C-11.46736587 47.93882426 -13.37194412 46.81018625 -16 45 C-15.7525 44.46375 -15.505 43.9275 -15.25 43.375 C-14.86836043 39.7494241 -16.97786872 37.94653416 -19 35 C-21.12086436 29.74833588 -20.99910605 25.70972945 -20.19140625 20.234375 C-19.83682248 17.82945659 -19.83682248 17.82945659 -21 15 C-20.34 14.67 -19.68 14.34 -19 14 C-18.67 13.01 -18.34 12.02 -18 11 C-17.67 11.33 -17.34 11.66 -17 12 C-16.38125 11.05125 -15.7625 10.1025 -15.125 9.125 C-11.37318529 3.60762543 -9.3305214 2.7758018 -3.03125 1.5 C-1.01766043 1.1901935 -1.01766043 1.1901935 0 0 Z M-5 9 C-4.67 9.66 -4.34 10.32 -4 11 C-3.34 10.34 -2.68 9.68 -2 9 C-2.99 9 -3.98 9 -5 9 Z M12 9 C13 11 13 11 13 11 Z M-4 12 C-8.83911106 19.5890118 -11.20770972 27.9951468 -10 37 C-7.19689538 39.82145555 -4.9274797 41.40492732 -1 42 C0.423125 42.309375 0.423125 42.309375 1.875 42.625 C5.16981777 43.02037813 7.77016136 42.69210828 11 42 C10.67 41.01 10.34 40.02 10 39 C11.32 39.33 12.64 39.66 14 40 C14.433125 38.2984375 14.433125 38.2984375 14.875 36.5625 C15.24625 35.386875 15.6175 34.21125 16 33 C16.66 32.67 17.32 32.34 18 32 C19.09163808 25.99599056 19.11227478 20.08778799 19 14 C14.26101734 11.54846925 9.87937667 11.76845794 4.6875 11.875 C3.43356445 11.88853516 3.43356445 11.88853516 2.15429688 11.90234375 C0.10274031 11.92579011 -1.94866777 11.96165734 -4 12 Z M-10 13 C-10 16 -10 16 -10 16 Z M19 17 C19.33 17.99 19.66 18.98 20 20 C20 19.01 20 18.02 20 17 C19.67 17 19.34 17 19 17 Z M-13 18 C-12 20 -12 20 -12 20 Z M-14 21 C-13 23 -13 23 -13 23 Z M21 26 C20.67 27.98 20.34 29.96 20 32 C20.66 31.01 21.32 30.02 22 29 C21.67 28.01 21.34 27.02 21 26 Z M-12 32 C-11 34 -11 34 -11 34 Z M19 32 C20 34 20 34 20 34 Z M-11 34 C-10 36 -10 36 -10 36 Z " fill="#292929" transform="translate(205,8)"/>
<path d="M0 0 C2.64 0 5.28 0 8 0 C8 2.64 8 5.28 8 8 C8.86882813 7.97679687 9.73765625 7.95359375 10.6328125 7.9296875 C11.78523437 7.91164063 12.93765625 7.89359375 14.125 7.875 C15.83042969 7.84019531 15.83042969 7.84019531 17.5703125 7.8046875 C21.08243487 8.00469447 23.72522554 8.76102063 27 10 C28.093125 10.309375 29.18625 10.61875 30.3125 10.9375 C31.199375 11.288125 32.08625 11.63875 33 12 C33.495 13.485 33.495 13.485 34 15 C34.99 14.67 35.98 14.34 37 14 C38.2039337 17.75399798 38.09877617 21.33217412 38.0625 25.25 C38.05347656 26.51328125 38.04445312 27.7765625 38.03515625 29.078125 C38.02355469 30.04234375 38.01195312 31.0065625 38 32 C37.01 32.495 37.01 32.495 36 33 C35.65657551 34.33076989 35.32380126 35.66431979 35 37 C34.34 37.66 33.68 38.32 33 39 C32.44765452 42.52120246 32.23205851 44.93619437 34.37890625 47.91015625 C35.47981653 49.11323917 36.61490792 50.28612379 37.78515625 51.421875 C38.18605469 51.94265625 38.58695313 52.4634375 39 53 C38.67 53.99 38.34 54.98 38 56 C36.56344146 56.08131463 35.1255517 56.13933559 33.6875 56.1875 C32.48673828 56.23970703 32.48673828 56.23970703 31.26171875 56.29296875 C28.48372541 55.93312505 27.70572785 55.16758647 26 53 C25.67 52.34 25.34 51.68 25 51 C24.34 50.67 23.68 50.34 23 50 C23.66 50 24.32 50 25 50 C24.34 49.01 23.68 48.02 23 47 C22.34 47.66 21.68 48.32 21 49 C21 48.34 21 47.68 21 47 C20.34 47 19.68 47 19 47 C19 46.34 19 45.68 19 45 C15.7 44.67 12.4 44.34 9 44 C9 47.63 9 51.26 9 55 C4.545 55.495 4.545 55.495 0 56 C0 37.52 0 19.04 0 0 Z M6 15 C6 21.93 6 28.86 6 36 C6.33 36 6.66 36 7 36 C7 29.07 7 22.14 7 15 C6.67 15 6.34 15 6 15 Z M8 16 C7.97309156 18.62506802 7.95320596 21.24986173 7.9375 23.875 C7.92912109 24.62136719 7.92074219 25.36773437 7.91210938 26.13671875 C7.79311916 30.19845578 7.79311916 30.19845578 9 34 C14.15171623 34.09038099 18.91913204 33.84681133 24 33 C24 32.01 24 31.02 24 30 C24.66 30 25.32 30 26 30 C26.33 30.99 26.66 31.98 27 33 C27.66 31.68 28.32 30.36 29 29 C28.34 29 27.68 29 27 29 C27.165 27.906875 27.33 26.81375 27.5 25.6875 C28.06718184 22.12474127 28.06718184 22.12474127 28 19 C27.01 18.34 26.02 17.68 25 17 C24.67 16.67 24.34 16.34 24 16 C21.30345146 15.92680379 18.63308542 15.90757463 15.9375 15.9375 C14.79958008 15.94426758 14.79958008 15.94426758 13.63867188 15.95117188 C11.75908129 15.9629932 9.87953101 15.98092922 8 16 Z M29 22 C29 24.31 29 26.62 29 29 C29.33 29 29.66 29 30 29 C30 26.69 30 24.38 30 22 C29.67 22 29.34 22 29 22 Z M9 35 C9 35.33 9 35.66 9 36 C11.31 36 13.62 36 16 36 C16 35.67 16 35.34 16 35 C13.69 35 11.38 35 9 35 Z M8 42 C8 42.33 8 42.66 8 43 C12.29 43 16.58 43 21 43 C21 42.67 21 42.34 21 42 C16.71 42 12.42 42 8 42 Z M33 49 C34 51 34 51 34 51 Z " fill="#292929" transform="translate(0,0)"/>
<path d="M0 0 C2.8125 1.3125 2.8125 1.3125 5 3 C5.144375 3.639375 5.28875 4.27875 5.4375 4.9375 C5.83960692 7.3672388 5.83960692 7.3672388 8.9375 8.6875 C12.76033708 11.57413208 12.94074199 13.4086509 13.578125 17.9765625 C13.85262384 20.2178887 13.85262384 20.2178887 16 22 C16.54929343 27.60279298 15.49231257 31.11123303 13 36 C12.34 36.66 11.68 37.32 11 38 C11 38.99 11 39.98 11 41 C8.90424699 44.24028257 6.39903732 46.20914105 3 48 C-2.5317175 48.8552909 -7.92332824 48.6645572 -13.5 48.4375 C-15.00513561 48.40233479 -16.51035048 48.37040494 -18.015625 48.34179688 C-21.67874806 48.26519428 -25.33886095 48.14470277 -29 48 C-29.16783252 41.46736699 -29.32779476 34.93457595 -29.48217773 28.40161133 C-29.53568392 26.17728264 -29.59101963 23.9529972 -29.64819336 21.72875977 C-29.7298646 18.53932018 -29.80504388 15.34978501 -29.87890625 12.16015625 C-29.91945885 10.65860741 -29.91945885 10.65860741 -29.96083069 9.12672424 C-29.98092697 8.20584518 -30.00102325 7.28496613 -30.02172852 6.33618164 C-30.04171402 5.52121719 -30.06169952 4.70625275 -30.08229065 3.86659241 C-30 2 -30 2 -29 1 C-27.46359803 0.85515151 -25.92116865 0.77296059 -24.37890625 0.71875 C-22.97608398 0.66267578 -22.97608398 0.66267578 -21.54492188 0.60546875 C-20.56072266 0.57066406 -19.57652344 0.53585937 -18.5625 0.5 C-16.62614952 0.43125383 -14.68993487 0.35853125 -12.75390625 0.28125 C-11.89095947 0.25095703 -11.0280127 0.22066406 -10.13891602 0.18945312 C-2.18790945 -0.51480222 -2.18790945 -0.51480222 0 0 Z M-7 1 C-3 2 -3 2 -3 2 Z M-23 7 C-23 18.55 -23 30.1 -23 42 C-22.67 42 -22.34 42 -22 42 C-22 30.45 -22 18.9 -22 7 C-22.33 7 -22.66 7 -23 7 Z M-21 8 C-21 19.22 -21 30.44 -21 42 C-6.61787557 43.47920052 -6.61787557 43.47920052 -2 40 C-2.33 39.34 -2.66 38.68 -3 38 C-2.4225 38.2475 -1.845 38.495 -1.25 38.75 C-0.5075 38.8325 0.235 38.915 1 39 C5.03819786 35.76944171 6.03726733 32.5971589 6.75 27.625 C7.20072666 23.40455947 6.51770502 21.4860531 4 18 C3.7525 16.700625 3.7525 16.700625 3.5 15.375 C2.90279109 12.53825768 2.37916067 11.64080046 0 10 C-3.10839021 9.2730774 -3.10839021 9.2730774 -6 9 C-6 8.67 -6 8.34 -6 8 C-10.95 8 -15.9 8 -21 8 Z M6 20 C7 22 7 22 7 22 Z M13 30 C14 33 14 33 14 33 Z " fill="#292929" transform="translate(430,8)"/>
<path d="M0 0 C2.64 0 5.28 0 8 0 C8 0.66 8 1.32 8 2 C10.475 2.495 10.475 2.495 13 3 C12.773125 3.556875 12.54625 4.11375 12.3125 4.6875 C11.87235748 7.94455467 13.271824 9.2477197 15 12 C15.309375 13.155 15.61875 14.31 15.9375 15.5 C16.74596075 19.01158436 16.74596075 19.01158436 18.9375 21.25 C21.57277617 24.76370156 22.23742634 28.1176654 23.27734375 32.33984375 C24.12820751 35.47194224 25.43913971 38.16207219 27 41 C28 44 28 44 28 47 C21.54782609 47.36521739 21.54782609 47.36521739 19.125 45.75 C17.89493337 43.83656302 17.38497994 42.23288365 17 40 C16.34 40 15.68 40 15 40 C15 39.34 15 38.68 15 38 C7.08 38 -0.84 38 -9 38 C-9.66 40.97 -10.32 43.94 -11 47 C-13.64 47 -16.28 47 -19 47 C-19.66 45.35 -20.32 43.7 -21 42 C-19.515 41.505 -19.515 41.505 -18 41 C-19.32 40.34 -20.64 39.68 -22 39 C-19.03 38.505 -19.03 38.505 -16 38 C-16.33 36.68 -16.66 35.36 -17 34 C-16.34 34 -15.68 34 -15 34 C-14.71125 33.401875 -14.4225 32.80375 -14.125 32.1875 C-13 30 -13 30 -11 27 C-11 26.01 -11 25.02 -11 24 C-10.34 24.33 -9.68 24.66 -9 25 C-9.01160156 24.37351562 -9.02320313 23.74703125 -9.03515625 23.1015625 C-9.04417969 22.28429687 -9.05320312 21.46703125 -9.0625 20.625 C-9.07410156 19.81289063 -9.08570313 19.00078125 -9.09765625 18.1640625 C-9 16 -9 16 -8 14 C-6.68 14 -5.36 14 -4 14 C-4.33 12.02 -4.66 10.04 -5 8 C-4.01 7.67 -3.02 7.34 -2 7 C-0.77030122 3.48809191 -0.77030122 3.48809191 0 0 Z M3 11 C4 13 4 13 4 13 Z M5 12 C5.33 12.99 5.66 13.98 6 15 C6 14.01 6 13.02 6 12 C5.67 12 5.34 12 5 12 Z M2 13 C3 16 3 16 3 16 Z M7 15 C8 17 8 17 8 17 Z M-7 16 C-6 18 -6 18 -6 18 Z M1 16 C0.34 17.65 -0.32 19.3 -1 21 C-0.01 21.495 -0.01 21.495 1 22 C1.33 20.02 1.66 18.04 2 16 C1.67 16 1.34 16 1 16 Z M5 17 C4.67 18.32 4.34 19.64 4 21 C4.66 21 5.32 21 6 21 C6.33 19.68 6.66 18.36 7 17 C6.34 17 5.68 17 5 17 Z M7 19 C8 22 8 22 8 22 Z M9 19 C8.34 20.32 7.68 21.64 7 23 C6.01 23 5.02 23 4 23 C3.67 24.32 3.34 25.64 3 27 C5.97 27 8.94 27 12 27 C11.45276317 23.62537285 10.9451 21.91765 9 19 Z M-2 22 C-1 24 -1 24 -1 24 Z M0 24 C-0.33 24.99 -0.66 25.98 -1 27 C-0.34 27 0.32 27 1 27 C0.67 26.01 0.34 25.02 0 24 Z M-4 29 C-4 29.33 -4 29.66 -4 30 C0.95 30 5.9 30 11 30 C11 29.67 11 29.34 11 29 C6.05 29 1.1 29 -4 29 Z M-5 36 C-5 36.33 -5 36.66 -5 37 C2.26 37.33 9.52 37.66 17 38 C17 37.34 17 36.68 17 36 C9.74 36 2.48 36 -5 36 Z M-19 43 C-18 45 -18 45 -18 45 Z " fill="#262626" transform="translate(484,9)"/>
<path d="M0 0 C10.89 0 21.78 0 33 0 C33 1.98 33 3.96 33 6 C33.495 6.99 33.495 6.99 34 8 C25.75 8 17.5 8 9 8 C9 12.62 9 17.24 9 22 C19.395 21.505 19.395 21.505 30 21 C30 23.31 30 25.62 30 28 C22.74 28 15.48 28 8 28 C8 32.62 8 37.24 8 42 C16.58 41.67 25.16 41.34 34 41 C33.67 43.31 33.34 45.62 33 48 C22.11 48 11.22 48 0 48 C0 32.16 0 16.32 0 0 Z M6 7 C6 11.95 6 16.9 6 22 C6.33 22 6.66 22 7 22 C7 17.05 7 12.1 7 7 C6.67 7 6.34 7 6 7 Z " fill="#242424" transform="translate(47,8)"/>
<path d="M0 0 C12.21 0 24.42 0 37 0 C37 2.31 37 4.62 37 7 C34 8 34 8 24 7 C24 20.53 24 34.06 24 48 C20.04 48 16.08 48 12 48 C12 34.8 12 21.6 12 8 C8.37 8 4.74 8 1 8 C0.67 7.67 0.34 7.34 0 7 C0 4.69 0 2.38 0 0 Z " fill="#272727" transform="translate(235,8)"/>
<path d="M0 0 C1.68794164 3.37588327 2.12509372 6.46963543 2.11352539 10.21777344 C2.11344986 11.03832214 2.11337433 11.85887085 2.11329651 12.70428467 C2.10813522 13.58046448 2.10297394 14.45664429 2.09765625 15.359375 C2.0962413 16.26375305 2.09482635 17.1681311 2.09336853 18.09991455 C2.08777911 20.98331027 2.07522853 23.86662782 2.0625 26.75 C2.05748363 28.70703013 2.05292096 30.66406147 2.04882812 32.62109375 C2.03781313 37.41409253 2.02055574 42.20703302 2 47 C2.99 47.33 3.98 47.66 5 48 C1.04 48 -2.92 48 -7 48 C-7 32.49 -7 16.98 -7 1 C-4.53721199 -0.231394 -2.7204945 -0.07159196 0 0 Z " fill="#2E2E2E" transform="translate(459,8)"/>
<path d="M0 0 C0.99 0 1.98 0 3 0 C4.09266193 3.2779858 3.8361233 3.84131197 3 7 C2.96213099 8.66623639 2.95372155 10.33397597 3 12 C4.65 12 6.3 12 8 12 C7.88544319 13.91731918 7.75793742 15.8338675 7.625 17.75 C7.55539063 18.81734375 7.48578125 19.8846875 7.4140625 20.984375 C6.78056462 25.59815205 5.19978511 27.80021489 2 31 C0.04444939 34.08771148 -0.20149192 36.37314539 0 40 C-1.65 40 -3.3 40 -5 40 C-5 35.05 -5 30.1 -5 25 C-5.99 24.67 -6.98 24.34 -8 24 C-9.11256539 20.66230383 -8.80685967 20.22743866 -8 17 C-7.96111651 14.66699067 -7.9551365 12.33290199 -8 10 C-7.01 11.485 -7.01 11.485 -6 13 C-5.67 12.34 -5.34 11.68 -5 11 C-4.71125 10.443125 -4.4225 9.88625 -4.125 9.3125 C-2.63661127 6.25303428 -1.32568231 3.13343091 0 0 Z M-4 23 C-3 25 -3 25 -3 25 Z " fill="#E5880C" transform="translate(156,0)"/>
<path d="M0 0 C1.16015625 0.10054687 1.16015625 0.10054687 2.34375 0.203125 C4.88145225 0.84674514 5.87648169 1.73100928 7.5 3.75 C7.5 4.08 7.5 4.41 7.5 4.75 C-0.915 5.245 -0.915 5.245 -9.5 5.75 C-9.974375 7.049375 -10.44875 8.34875 -10.9375 9.6875 C-12.375 13.625 -12.375 13.625 -13.5 14.75 C-13.73527773 17.09987262 -13.91386417 19.45556039 -14.0625 21.8125 C-14.14628906 23.10285156 -14.23007813 24.39320312 -14.31640625 25.72265625 C-14.37699219 26.72167969 -14.43757812 27.72070312 -14.5 28.75 C-15.16 27.43 -15.82 26.11 -16.5 24.75 C-17.16 24.75 -17.82 24.75 -18.5 24.75 C-19.46568159 18.99505971 -20.06528365 14.18840135 -17.5 8.75 C-11.22123894 2.75 -11.22123894 2.75 -7.5 2.75 C-7.5 2.09 -7.5 1.43 -7.5 0.75 C-4.51786685 -0.24404438 -3.05541462 -0.30554146 0 0 Z " fill="#070707" transform="translate(210.5,15.25)"/>
<path d="M0 0 C8.58 0 17.16 0 26 0 C26 0.33 26 0.66 26 1 C18.41 1 10.82 1 3 1 C3 4.96 3 8.92 3 13 C11.25 13 19.5 13 28 13 C28 13.66 28 14.32 28 15 C18.76 15 9.52 15 0 15 C0 10.05 0 5.1 0 0 Z M1 9 C2 13 2 13 2 13 Z " fill="#000000" transform="translate(364,15)"/>
<path d="M0 0 C18.315 0.495 18.315 0.495 37 1 C37 3.64 37 6.28 37 9 C34.03 9 31.06 9 28 9 C28 6.69 28 4.38 28 2 C18.76 2.33 9.52 2.66 0 3 C0 2.01 0 1.02 0 0 Z " fill="#030303" transform="translate(364,47)"/>
<path d="M0 0 C2.78212622 4.17318933 4.15481562 8.06975779 5 13 C4.38125 13.268125 3.7625 13.53625 3.125 13.8125 C0.7004767 14.95556848 0.7004767 14.95556848 -1 18 C-0.37351562 17.98839844 0.25296875 17.97679688 0.8984375 17.96484375 C1.71570313 17.95582031 2.53296875 17.94679688 3.375 17.9375 C4.18710937 17.92589844 4.99921875 17.91429688 5.8359375 17.90234375 C8 18 8 18 10 19 C9.67 19.66 9.34 20.32 9 21 C3.39 20.67 -2.22 20.34 -8 20 C-7.67 18.35 -7.34 16.7 -7 15 C-6.34 15 -5.68 15 -5 15 C-4.67 14.01 -4.34 13.02 -4 12 C-3.24759225 10.00857297 -2.48423518 8.02159029 -1.71875 6.03515625 C-1.01447572 4.0409883 -0.47897856 2.05868669 0 0 Z M1 8 C0.67 9.32 0.34 10.64 0 12 C0.66 12 1.32 12 2 12 C2.33 10.68 2.66 9.36 3 8 C2.34 8 1.68 8 1 8 Z M3 10 C4 13 4 13 4 13 Z M-4 15 C-4.33 15.99 -4.66 16.98 -5 18 C-4.34 18 -3.68 18 -3 18 C-3.33 17.01 -3.66 16.02 -4 15 Z " fill="#030303" transform="translate(488,18)"/>
<path d="M0 0 C1.875 0.1875 1.875 0.1875 4 1 C5.78284814 4.29826907 6 6.1774751 6 10 C6.66 10.33 7.32 10.66 8 11 C7.72349609 11.84691406 7.72349609 11.84691406 7.44140625 12.7109375 C6.93048469 15.36049533 7.2720562 17.02411508 7.9375 19.625 C9 23.86092715 9 23.86092715 9 26 C9.66 26 10.32 26 11 26 C11.66 27.65 12.32 29.3 13 31 C12.01 31.33 11.02 31.66 10 32 C10 31.34 10 30.68 10 30 C9.34 30 8.68 30 8 30 C7.34 28.35 6.68 26.7 6 25 C5.566875 25.825 5.13375 26.65 4.6875 27.5 C3.8521875 28.7375 3.8521875 28.7375 3 30 C2.01 30 1.02 30 0 30 C0 29.01 0 28.02 0 27 C0.7115625 26.319375 0.7115625 26.319375 1.4375 25.625 C4.92331387 21.99975358 4.10665089 16.41164476 4.0625 11.6875 C4.04896484 9.80611328 4.04896484 9.80611328 4.03515625 7.88671875 C4.02355469 6.93410156 4.01195312 5.98148438 4 5 C3.34 4.67 2.68 4.34 2 4 C2.33 3.34 2.66 2.68 3 2 C2.01 1.67 1.02 1.34 0 1 C0 0.67 0 0.34 0 0 Z " fill="#090909" transform="translate(177,19)"/>
<path d="M0 0 C1.32 0.66 2.64 1.32 4 2 C4 5.3 4 8.6 4 12 C1.69 12 -0.62 12 -3 12 C-2.9071875 13.175625 -2.9071875 13.175625 -2.8125 14.375 C-2.874375 15.24125 -2.93625 16.1075 -3 17 C-3.99 17.66 -4.98 18.32 -6 19 C-6.85659135 15.91915045 -7.26941369 12.93207999 -7.5625 9.75 C-7.64628906 8.85796875 -7.73007813 7.9659375 -7.81640625 7.046875 C-7.87699219 6.37140625 -7.93757812 5.6959375 -8 5 C-6.02 5.66 -4.04 6.32 -2 7 C-1.34 4.69 -0.68 2.38 0 0 Z " fill="#030303" transform="translate(147,23)"/>
<path d="M0 0 C0.33 0.66 0.66 1.32 1 2 C1.99 2.33 2.98 2.66 4 3 C4 4.32 4 5.64 4 7 C4.66 7.33 5.32 7.66 6 8 C5.34 8 4.68 8 4 8 C4 14.6 4 21.2 4 28 C2.68 28 1.36 28 0 28 C-0.19581346 23.52115561 -0.3802636 19.04191574 -0.5625 14.5625 C-0.61857422 13.28310547 -0.67464844 12.00371094 -0.73242188 10.68554688 C-0.78076172 9.47060547 -0.82910156 8.25566406 -0.87890625 7.00390625 C-0.9260376 5.87799072 -0.97316895 4.7520752 -1.02172852 3.59204102 C-1 1 -1 1 0 0 Z " fill="#010101" transform="translate(305,28)"/>
<path d="M0 0 C2.64 0 5.28 0 8 0 C8 2.64 8 5.28 8 8 C5.36 8.33 2.72 8.66 0 9 C0 6.03 0 3.06 0 0 Z " fill="#000000" transform="translate(0,0)"/>
<path d="M0 0 C0.99 0 1.98 0 3 0 C0.31332147 8.06003558 -3.11049917 15.44757121 -7 23 C-7.66 23 -8.32 23 -9 23 C-9.93065133 20.39417629 -10.14917407 19.35801776 -9.0625 16.75 C-8.711875 16.1725 -8.36125 15.595 -8 15 C-7.01 15 -6.02 15 -5 15 C-5 13.02 -5 11.04 -5 9 C-4.34 9 -3.68 9 -3 9 C-2.87625 8.071875 -2.7525 7.14375 -2.625 6.1875 C-2 3 -2 3 0 0 Z " fill="#0C0C0C" transform="translate(334,30)"/>
<path d="M0 0 C0.66 0 1.32 0 2 0 C2 2.64 2 5.28 2 8 C-2.21896866 10.04898287 -5.65372146 10.21207997 -10.3125 10.125 C-11.56675781 10.10695313 -12.82101563 10.08890625 -14.11328125 10.0703125 C-15.06589844 10.04710937 -16.01851563 10.02390625 -17 10 C-16.67 9.34 -16.34 8.68 -16 8 C-11.71 8 -7.42 8 -3 8 C-3 7.34 -3 6.68 -3 6 C-1.68 6 -0.36 6 1 6 C0.67 4.02 0.34 2.04 0 0 Z " fill="#060606" transform="translate(115,19)"/>
<path d="M0 0 C0.33 0 0.66 0 1 0 C1 16.5 1 33 1 50 C0.67 50 0.34 50 0 50 C0 33.5 0 17 0 0 Z " fill="#393939" transform="translate(45,6)"/>
<path d="M0 0 C1.32 1.65 2.64 3.3 4 5 C3.34 5 2.68 5 2 5 C2.03480469 5.65226562 2.06960937 6.30453125 2.10546875 6.9765625 C2.27610432 12.48565372 2.0363889 16.19238424 -1 21 C-1.99 21 -2.98 21 -4 21 C-3.34 19.02 -2.68 17.04 -2 15 C-1.34 15 -0.68 15 0 15 C0 10.05 0 5.1 0 0 Z " fill="#0A0A0A" transform="translate(223,25)"/>
<path d="M0 0 C0.99 0 1.98 0 3 0 C4.19287411 3.87684087 5 6.91621923 5 11 C4.01 11 3.02 11 2 11 C1.67 11.66 1.34 12.32 1 13 C0.63779734 11.20994059 0.28547531 9.41787943 -0.0625 7.625 C-0.25972656 6.62726562 -0.45695312 5.62953125 -0.66015625 4.6015625 C-1 2 -1 2 0 0 Z " fill="#0A0A0A" transform="translate(127,37)"/>
<path d="M0 0 C0.99 0.66 1.98 1.32 3 2 C5.64017635 2.81779841 8.30270591 3.3809489 11 4 C11 3.34 11 2.68 11 2 C11.99 2.33 12.98 2.66 14 3 C13.34 3 12.68 3 12 3 C12 3.66 12 4.32 12 5 C8.98968256 5.93423645 8.13349732 6.04449911 5 5 C3.00326516 4.64763503 1.00349261 4.31165441 -1 4 C-1 1 -1 1 0 0 Z " fill="#040404" transform="translate(149,45)"/>
<path d="M0 0 C1 3 1 3 0.22265625 5.04296875 C-0.16019531 5.75066406 -0.54304688 6.45835938 -0.9375 7.1875 C-1.31777344 7.90292969 -1.69804687 8.61835937 -2.08984375 9.35546875 C-2.54037109 10.16951172 -2.54037109 10.16951172 -3 11 C-3.66 11 -4.32 11 -5 11 C-5.93065133 8.39417629 -6.14917407 7.35801776 -5.0625 4.75 C-4.5365625 3.88375 -4.5365625 3.88375 -4 3 C-3.01 3 -2.02 3 -1 3 C-0.67 2.01 -0.34 1.02 0 0 Z " fill="#030303" transform="translate(330,42)"/>
<path d="M0 0 C0.66 0 1.32 0 2 0 C3.2039337 3.75399798 3.09877617 7.33217412 3.0625 11.25 C3.05347656 12.51328125 3.04445313 13.7765625 3.03515625 15.078125 C3.02355469 16.04234375 3.01195312 17.0065625 3 18 C2.67 18 2.34 18 2 18 C1.92652344 16.86111328 1.92652344 16.86111328 1.8515625 15.69921875 C1.77679688 14.70535156 1.70203125 13.71148437 1.625 12.6875 C1.55539063 11.70136719 1.48578125 10.71523438 1.4140625 9.69921875 C1.16134528 6.78471567 1.16134528 6.78471567 -1 4 C-0.625 1.8125 -0.625 1.8125 0 0 Z " fill="#101010" transform="translate(35,14)"/>
<path d="M0 0 C2.875 1.4375 2.875 1.4375 5 3 C5 3.66 5 4.32 5 5 C3.35 4.67 1.7 4.34 0 4 C0 3.34 0 2.68 0 2 C-2.64 2 -5.28 2 -8 2 C-8 1.34 -8 0.68 -8 0 C-5.05401654 -1.47299173 -3.16265296 -0.74415364 0 0 Z " fill="#090909" transform="translate(430,8)"/>
<path d="M0 0 C0.33 0 0.66 0 1 0 C1.33 4.29 1.66 8.58 2 13 C2.66 12.01 3.32 11.02 4 10 C4 11.65 4 13.3 4 15 C2.35 15 0.7 15 -1 15 C-0.67 10.05 -0.34 5.1 0 0 Z " fill="#010101" transform="translate(152,25)"/>
<path d="M0 0 C2.64455995 3.96683992 3.28109187 7.15282485 2.5625 11.875 C2.376875 12.57625 2.19125 13.2775 2 14 C1.34 13.67 0.68 13.34 0 13 C0 8.71 0 4.42 0 0 Z " fill="#F78F0C" transform="translate(153,25)"/>
<path d="M0 0 C2.475 0.99 2.475 0.99 5 2 C5 2.66 5 3.32 5 4 C6.32 4.33 7.64 4.66 9 5 C5.61608307 6.06351675 4.4195366 6.21442982 1.1875 4.5625 C0.465625 4.046875 -0.25625 3.53125 -1 3 C-0.67 2.01 -0.34 1.02 0 0 Z " fill="#030303" transform="translate(190,50)"/>
<path d="M0 0 C0 2.31 0 4.62 0 7 C-0.66 7 -1.32 7 -2 7 C-2 6.34 -2 5.68 -2 5 C-2.66 5 -3.32 5 -4 5 C-4.33 3.68 -4.66 2.36 -5 1 C-3 0 -3 0 0 0 Z " fill="#020202" transform="translate(32,39)"/>
<path d="M0 0 C1.32 0 2.64 0 4 0 C4.66 1.65 5.32 3.3 6 5 C5.01 5.33 4.02 5.66 3 6 C3 5.34 3 4.68 3 4 C2.34 4 1.68 4 1 4 C0.67 2.68 0.34 1.36 0 0 Z " fill="#000000" transform="translate(184,45)"/>
<path d="M0 0 C1.32 0 2.64 0 4 0 C4 1.65 4 3.3 4 5 C2.35 5 0.7 5 -1 5 C-0.67 3.35 -0.34 1.7 0 0 Z " fill="#000000" transform="translate(388,31)"/>
<path d="M0 0 C0.66 0 1.32 0 2 0 C2.33 1.32 2.66 2.64 3 4 C-3.625 5.25 -3.625 5.25 -7 3 C-4.69 3 -2.38 3 0 3 C0 2.01 0 1.02 0 0 Z " fill="#080808" transform="translate(24,30)"/>
<path d="M0 0 C1.32 1.65 2.64 3.3 4 5 C3.34 5 2.68 5 2 5 C2 6.65 2 8.3 2 10 C-0.4294516 6.3558226 -0.16179575 4.28758728 0 0 Z " fill="#000000" transform="translate(223,25)"/>
<path d="M0 0 C0 0.66 0 1.32 0 2 C0.66 2.33 1.32 2.66 2 3 C-0.31 3 -2.62 3 -5 3 C-2.25 0 -2.25 0 0 0 Z " fill="#000000" transform="translate(324,53)"/>
<path d="M0 0 C0.66 0 1.32 0 2 0 C2 1.32 2 2.64 2 4 C1.34 4 0.68 4 0 4 C0 2.68 0 1.36 0 0 Z " fill="#000000" transform="translate(391,10)"/>
<path d="M0 0 C0.33 0 0.66 0 1 0 C1 1.98 1 3.96 1 6 C0.67 6 0.34 6 0 6 C0 4.02 0 2.04 0 0 Z " fill="#2A2A2A" transform="translate(81,50)"/>
<path d="M0 0 C0.66 0 1.32 0 2 0 C2.33 0.99 2.66 1.98 3 3 C2.01 2.67 1.02 2.34 0 2 C0 1.34 0 0.68 0 0 Z " fill="#000000" transform="translate(230,18)"/>
<path d="M0 0 C0.33 0 0.66 0 1 0 C1 1.65 1 3.3 1 5 C0.67 5 0.34 5 0 5 C0 3.35 0 1.7 0 0 Z " fill="#000000" transform="translate(130,31)"/>
<path d="M0 0 C1.98 0.99 1.98 0.99 4 2 C2.68 1.67 1.36 1.34 0 1 C0 0.67 0 0.34 0 0 Z " fill="#1E1E1E" transform="translate(435,13)"/>
<path d="M0 0 C4 1 4 1 4 1 Z " fill="#000000" transform="translate(492,8)"/>
<path d="M0 0 C0.33 0.66 0.66 1.32 1 2 C0.34 1.67 -0.32 1.34 -1 1 C-0.67 0.67 -0.34 0.34 0 0 Z " fill="#000000" transform="translate(226,51)"/>
<path d="M0 0 C0.99 0.495 0.99 0.495 2 1 C1.01 1.495 1.01 1.495 0 2 C0 1.34 0 0.68 0 0 Z " fill="#000000" transform="translate(175,51)"/>
<path d="M0 0 C0.33 0.66 0.66 1.32 1 2 C0.34 1.67 -0.32 1.34 -1 1 C-0.67 0.67 -0.34 0.34 0 0 Z " fill="#000000" transform="translate(228,49)"/>
<path d="M0 0 C0.66 0.66 1.32 1.32 2 2 C1.34 2 0.68 2 0 2 C0 1.34 0 0.68 0 0 Z " fill="#1C1C1C" transform="translate(510,47)"/>
<path d="" fill="#000000" transform="translate(0,0)"/>
<path d="M0 0 C2 1 2 1 2 1 Z " fill="#000000" transform="translate(223,53)"/>
<path d="" fill="#000000" transform="translate(0,0)"/>
<path d="" fill="#000000" transform="translate(0,0)"/>
<path d="" fill="#030303" transform="translate(0,0)"/>
<path d="" fill="#000000" transform="translate(0,0)"/>
<path d="" fill="#000000" transform="translate(0,0)"/>
<path d="" fill="#010101" transform="translate(0,0)"/>
<path d="" fill="#010101" transform="translate(0,0)"/>
<path d="M0 0 C2 1 2 1 2 1 Z " fill="#000000" transform="translate(431,22)"/>
<path d="M0 0 C2 1 2 1 2 1 Z " fill="#000000" transform="translate(331,17)"/>
<path d="M0 0 C2 1 2 1 2 1 Z " fill="#000000" transform="translate(439,16)"/>
<path d="M0 0 C2 1 2 1 2 1 Z " fill="#000000" transform="translate(391,15)"/>
<path d="M0 0 C2 1 2 1 2 1 Z " fill="#000000" transform="translate(307,9)"/>
<path d="" fill="#010101" transform="translate(0,0)"/>
<path d="" fill="#555555" transform="translate(0,0)"/>
<path d="" fill="#555555" transform="translate(0,0)"/>
<path d="" fill="#515151" transform="translate(0,0)"/>
<path d="" fill="#000000" transform="translate(0,0)"/>
<path d="" fill="#000000" transform="translate(0,0)"/>
<path d="" fill="#3D3D3D" transform="translate(0,0)"/>
<path d="" fill="#3D3D3D" transform="translate(0,0)"/>
<path d="" fill="#575757" transform="translate(0,0)"/>
<path d="" fill="#505050" transform="translate(0,0)"/>
<path d="" fill="#545454" transform="translate(0,0)"/>
<path d="" fill="#010101" transform="translate(0,0)"/>
<path d="" fill="#A06931" transform="translate(0,0)"/>
<path d="" fill="#555555" transform="translate(0,0)"/>
<path d="" fill="#020202" transform="translate(0,0)"/>
<path d="" fill="#000000" transform="translate(0,0)"/>
<path d="" fill="#020202" transform="translate(0,0)"/>
</svg>
